<svg width="151" height="152" viewBox="0 0 151 152" fill="none" xmlns="http://www.w3.org/2000/svg">
<path d="M71.8413 151.287L74.3572 147.324L69.6743 147.139L71.8413 151.287Z" fill="#FEFEFE"/>
<path d="M77.9658 151.269L80.1511 147.13L75.4774 147.324L77.9658 151.269Z" fill="#FEFEFE"/>
<path d="M66.2402 150.852L69.0316 147.083L64.3762 146.556L66.2402 150.852Z" fill="#FEFEFE"/>
<path d="M83.5394 150.824L85.4125 146.528L80.7664 147.083L83.5394 150.824Z" fill="#FEFEFE"/>
<path d="M146.07 75.2778L150 72.7685L145.914 70.5555L146.07 75.2778Z" fill="#FEFEFE"/>
<path d="M145.859 69.9445L149.605 67.1481L145.345 65.25L145.859 69.9445Z" fill="#FEFEFE"/>
<path d="M144.803 75.4444C144.812 36.5648 113.565 5.1296 75.0183 5.21293C36.4716 5.31479 5.21546 36.9074 5.21546 75.7963C5.20627 114.685 36.4532 146.13 75.0092 146.037C113.547 145.935 144.803 114.324 144.803 75.4444ZM136.622 60.6481C136.622 60.6481 136.3 61.8241 136.869 61.9815C137.246 62.0926 137.641 62.2037 137.733 62.5277C137.824 62.8611 137.613 63.1759 137.365 63.2407C137.071 63.3333 133.417 64.3518 133.417 64.3518C133.417 64.3518 132.857 64.5185 132.728 64C132.6 63.5463 133.224 63.25 133.224 63.25C136.117 61.4537 135.547 58.7037 135.547 58.7037L136.603 58.3981C136.594 58.4074 136.869 59.3889 136.622 60.6481ZM131.434 46.4074C131.434 46.4074 131.388 47.6203 131.985 47.6389C132.379 47.6574 132.793 47.6759 132.949 47.9722C133.123 48.2685 132.985 48.6296 132.765 48.7592C132.508 48.9074 129.193 50.7778 129.193 50.7778C129.193 50.7778 128.67 51.0648 128.431 50.6018C128.22 50.1852 128.743 49.7592 128.743 49.7592C131.14 47.324 129.928 44.787 129.928 44.787L130.892 44.25C130.883 44.2407 131.379 45.1296 131.434 46.4074ZM124.878 34.787L122.417 37.1944C122.417 37.1944 122.013 37.6759 121.71 37.5C121.287 37.2592 121.517 36.8333 121.517 36.8333C121.517 36.8333 121.838 35.9166 121.875 34.574C121.903 33.2315 121.021 32.2407 121.021 32.2407L121.728 31.537L124.878 34.787ZM116.568 27.9722C116.568 27.9722 116.164 27.3889 116.568 27C117.045 26.537 117.651 27.3055 117.651 27.3055L121.14 30.9166L110.746 41.1203L107 37.2315C106.807 37.037 106.431 36.5278 106.871 36.1018C107.193 35.7963 107.753 36.1018 107.753 36.1018C108.322 36.3703 108.79 36 108.79 36L116.311 28.6111C116.733 28.2037 116.568 27.9722 116.568 27.9722ZM118.781 50.1389L117.816 50.6759C117.816 50.6759 117.247 49.7685 117.21 48.5092C117.21 48.5092 117.229 47.6944 116.669 47.4629C116.311 47.2963 115.916 47.25 115.75 46.9444C115.567 46.6389 115.714 46.287 115.925 46.1666C116.2 46.0092 119.166 44.324 119.166 44.324C119.166 44.324 119.57 44.1111 119.846 44.5833C120.084 45.0185 119.552 45.4722 119.552 45.4722C117.302 48.0555 118.781 50.1389 118.781 50.1389ZM114.502 44.9722L111.361 41.7129L112.078 41.0092C112.078 41.0092 113.023 41.9259 114.373 41.9352C115.714 41.9352 116.614 41.6481 116.614 41.6481C116.614 41.6481 117.045 41.4166 117.275 41.8426C117.44 42.1481 116.953 42.5463 116.953 42.5463L114.502 44.9722ZM116.779 39.9074C116.586 40.0833 115.659 40.1203 116.265 38.9537C116.862 37.787 116.494 36.7037 116.494 36.7037L117.174 36.0278C117.174 36.0278 118.23 36.4444 119.405 35.8611C120.571 35.287 120.507 36.2315 120.323 36.4074L116.779 39.9074ZM107.018 19.7315L108.689 20.7037C108.689 20.7037 112.922 22.7407 110.664 26.7129C109.167 29.3426 106.963 29.0833 105.641 28.6111C105.641 28.6111 106.072 28.7407 106.045 29.6759L105.981 33.8055C105.926 34.3981 106.137 34.6111 106.137 34.6111C106.137 34.6111 106.476 34.9166 106.201 35.4259C105.861 36 104.897 35.3333 104.897 35.3333L102.087 33.7129C102.087 33.7129 101.197 33.3148 101.536 32.7222C101.775 32.2778 102.464 32.5 102.464 32.5C102.464 32.5 102.941 32.6018 103.006 32.0926C103.006 32.0926 103.088 27.7778 103.097 27.5C103.116 27.2407 102.84 27.0926 102.84 27.0926L103.373 26.1296C103.373 26.1296 104.438 26.7685 105.044 25.6852L106.945 22.3611C107.569 21.2777 106.486 20.6852 106.486 20.6852L107.018 19.7315ZM100.784 16.8055C101.123 16.2222 101.922 16.7778 101.922 16.7778L106.274 19.3055L100.113 30.1203C100.113 30.1203 99.8745 30.6666 100.279 31.1574C100.279 31.1574 100.719 31.6389 100.499 32.0185C100.187 32.5648 99.6174 32.324 99.3695 32.1759L94.3744 29.2963C94.1264 29.1574 93.6306 28.7685 93.952 28.2315C94.1632 27.8426 94.8059 27.9907 94.8059 27.9907C95.4211 28.0926 95.7701 27.6018 95.7701 27.6018L101.004 18.4166C101.279 17.9259 101.068 17.7407 101.068 17.7407C101.068 17.7407 100.517 17.2963 100.784 16.8055ZM92.1155 14.6666L92.4094 13.6018L94.2734 14.1111C94.2734 14.1111 98.8736 15.0277 97.6708 19.4444C96.4495 23.8611 92.0329 22.2963 92.0329 22.2963L90.1689 21.7778L90.4628 20.6944C90.4628 20.6944 91.6473 21.074 91.9686 19.8703L92.9787 16.1574C93.3001 14.9537 92.1155 14.6666 92.1155 14.6666ZM81.8407 25.1111C81.9509 24.6666 82.5936 24.6574 82.5936 24.6574C83.2272 24.6018 83.4384 24.0555 83.4384 24.0555L86.2298 13.8426C86.3859 13.287 86.138 13.1666 86.138 13.1666C86.138 13.1666 85.486 12.8703 85.6421 12.3333C85.8166 11.6944 86.7348 12.0463 86.7348 12.0463L91.5738 13.3703L88.2774 25.3889C88.2774 25.3889 88.1764 25.9815 88.6906 26.3518C88.6906 26.3518 89.2324 26.7037 89.113 27.1296C88.9569 27.7315 88.3325 27.6389 88.0662 27.5648L82.511 26.037C82.2539 25.9444 81.6662 25.7037 81.8407 25.1111ZM75.9917 11.1944C75.9917 11.1944 76.9833 11.1944 78.1219 11.787C78.1219 11.787 79.1411 12.4352 79.4625 11.9166C79.6737 11.574 79.8941 11.2222 80.2246 11.2315C80.5827 11.2315 80.8123 11.5277 80.8031 11.7963C80.8031 12.0926 80.7664 15.9259 80.7664 15.9259C80.7664 15.9259 80.7664 16.5185 80.2155 16.5C79.7472 16.4907 79.637 15.8055 79.637 15.8055C78.7555 12.4907 75.9733 12.3148 75.9733 12.3148L75.9917 11.1944ZM71.3087 12.4074C72.227 11.6018 73.6869 11.1759 75.1469 11.1666L75.1285 12.3055C74.348 12.3055 73.439 12.4907 72.9064 12.824C72.4014 13.1574 72.1627 13.5833 72.1443 14.1203C72.1443 14.574 72.3372 14.8796 72.7136 15.0648C73.1085 15.2407 73.5951 15.3796 74.146 15.4722L75.8815 15.8055C77.4333 16.1389 78.5443 16.7129 79.334 17.3426C80.3807 18.1666 81.4826 19.5277 81.4642 20.9537C81.455 21.5277 81.4 22.074 81.1979 22.5926C80.8031 23.6296 80.0502 24.4074 79.1044 24.9815C78.1403 25.5463 76.8823 25.8148 75.8172 25.8055L75.8264 24.6666C76.3957 24.6296 76.864 24.4815 77.4883 24.1111C78.1678 23.7129 78.4984 23.1759 78.5259 22.4444C78.4984 21.4907 77.7638 20.8426 76.2671 20.4629L74.6235 20.0833C73.9991 19.9722 73.4298 19.8055 72.9432 19.6481C72.2545 19.4444 71.6668 19.1296 71.1986 18.7315C70.7394 18.3426 70.3905 17.8889 70.161 17.3518C69.9314 16.824 69.8304 16.25 69.8396 15.6666C69.858 14.3518 70.3446 13.2685 71.3087 12.4074ZM74.9908 24.7037L74.9724 25.8148C74.9724 25.8148 73.9073 25.8611 72.8146 25.2685C72.8146 25.2685 72.1168 24.8518 71.6301 25.2129C71.3179 25.4537 71.07 25.7778 70.7211 25.7778C70.3813 25.7685 70.1426 25.4815 70.1518 25.2222C70.1518 24.9166 70.1885 21.4815 70.1885 21.4815C70.1885 21.4815 70.1977 21.0185 70.7394 21.0277C71.2445 21.0277 71.3638 21.7129 71.3638 21.7129C72.4749 24.9537 74.9908 24.7037 74.9908 24.7037ZM67.2686 21.9074C67.6175 21.9074 67.7277 22.537 67.7277 22.537L68.5725 25.8703L64.2017 27L63.9538 26.0185C63.9538 26.0185 65.221 25.6481 65.9004 24.4815C66.5707 23.3148 66.7636 22.3796 66.7636 22.3796C66.7636 22.3796 66.7819 21.8889 67.2686 21.9074ZM62.4571 20.0463L62.2276 19.1111C62.2276 19.1111 63.1091 18.3889 63.2009 17.0833C63.2927 15.7685 64.0732 16.3055 64.1375 16.5463L65.3495 21.3796C65.4138 21.6296 64.9822 22.4629 64.2844 21.3611C63.5682 20.25 62.4571 20.0463 62.4571 20.0463ZM65.0098 11.75L65.8545 15.0926C65.8545 15.0926 66.0565 15.6759 65.7627 15.8518C65.3312 16.1111 65.0832 15.6852 65.0832 15.6852C65.0832 15.6852 64.468 14.9537 63.3203 14.2685C62.1908 13.5648 60.887 13.8518 60.887 13.8518L60.6482 12.8703L65.0098 11.75ZM54.9553 14.3426L59.8127 13.0926L63.3753 27.25L58.1691 28.5926C57.8936 28.6574 57.2784 28.75 57.1315 28.1389C57.0121 27.7129 57.5722 27.3703 57.5722 27.3703C58.0864 27.0092 58.0038 26.4166 58.0038 26.4166L55.4236 16.1666C55.2767 15.6111 55.0012 15.6296 55.0012 15.6296C55.0012 15.6296 54.3034 15.6944 54.1656 15.1481C53.982 14.5 54.9553 14.3426 54.9553 14.3426ZM38.6753 22.574L49.0144 30.3148C49.0144 30.3148 49.4184 30.75 50.0153 30.5926C50.0153 30.5926 50.6213 30.3703 50.8876 30.7315C51.2549 31.2222 50.7958 31.6666 50.5754 31.824L45.9843 35.2963C45.7639 35.4722 45.2406 35.7685 44.8641 35.2685C44.5978 34.9259 44.9743 34.3889 44.9743 34.3889C45.5527 33.7222 45.011 33.3518 45.011 33.3518L43.6429 32.324L40.98 34.3333L40.2914 33.4074L42.6695 31.6111L35.3973 26.1481L35.0943 25.287L38.6753 22.574ZM39.5384 37.4907L35.8931 27.4722L37.7479 28.8611L40.5944 36.6852C40.5944 36.6852 40.8147 37.287 41.5952 36.9444C41.5952 36.9444 42.2013 36.7407 42.4675 37.0833C42.8256 37.5833 42.3849 38.0185 42.1645 38.1852L40.5117 39.4259C40.3005 39.6018 39.7588 39.9074 39.3915 39.4074C39.1252 39.0463 39.5017 38.5185 39.5017 38.5185C39.8323 37.9815 39.5384 37.4907 39.5384 37.4907ZM28.7861 31.2222L29.686 30.1111C29.686 30.1111 30.2369 29.2963 30.7511 29.7407C31.1367 30.0555 30.9347 30.5648 30.9347 30.5648C30.9347 30.5648 30.8705 30.7778 31.1276 31.3148L33.3864 37.1296L31.8713 36.7963L30.2185 32.4166C29.9798 31.9629 29.5666 32.2407 29.5666 32.2407C29.5666 32.2407 29.0065 32.6759 28.6208 32.3518C28.0974 31.9259 28.7861 31.2222 28.7861 31.2222ZM22.2484 39.1944L25.4438 35.3055C25.4438 35.3055 25.9855 34.5 26.4997 34.9259C26.8762 35.2407 26.5732 35.8889 26.5732 35.8889C26.5732 35.8889 26.3804 36.3518 26.8762 36.4907L34.6902 38.1852L37.3072 40.3611C37.3072 40.3611 37.7938 40.6852 38.3356 40.3796C38.3356 40.3796 38.8681 40.0185 39.217 40.3055C39.6945 40.7037 39.364 41.2315 39.1803 41.4352L35.5258 45.8981C35.3514 46.1203 34.9014 46.5463 34.4331 46.1481C34.0934 45.8703 34.3321 45.2685 34.3321 45.2685C34.5433 44.6759 34.1301 44.2685 34.1301 44.2685L31.504 42.0648L23.6992 40.3889C23.1482 40.2222 22.9371 40.324 22.9371 40.324C22.9371 40.324 22.4779 40.6296 22.1015 40.3055C21.5689 39.8981 22.2484 39.1944 22.2484 39.1944ZM11.2573 69.7778L14.6823 69.7685C14.6823 69.7685 15.2975 69.7037 15.3985 70.0463C15.527 70.5278 15.0587 70.6666 15.0587 70.6666C15.0587 70.6666 14.2048 71.0926 13.259 72.037C12.3133 72.9907 12.2582 74.3148 12.2582 74.3148H11.2665V69.7778H11.2573ZM15.6464 71.7963L20.5864 71.7777C20.8435 71.7777 21.5322 72.4074 20.2926 72.8241C19.0714 73.2407 18.5939 74.2778 18.5939 74.2778H17.6481C17.6481 74.2778 17.1706 73.2407 15.9311 72.8333C14.6915 72.4352 15.3985 71.7963 15.6464 71.7963ZM25.7376 80.5648C25.7376 80.8611 25.655 81.4722 25.049 81.4815C24.6082 81.4815 24.4154 80.8611 24.4154 80.8611C24.195 80.2685 23.5982 80.2129 23.5982 80.2129L13.1029 80.2407C12.5336 80.2407 12.4877 80.5185 12.4877 80.5185C12.4877 80.5185 12.3776 81.2129 11.8174 81.2222C11.1471 81.2222 11.2481 80.2407 11.2481 80.2407V75.1852L25.7284 75.1481L25.7376 80.5648ZM25.756 74.287H24.7459C24.7459 74.287 24.7 72.9537 23.7543 72.0185C22.7993 71.0833 21.9546 70.6574 21.9546 70.6574C21.9546 70.6574 21.4863 70.5185 21.6148 70.037C21.7158 69.7129 22.331 69.7592 22.331 69.7592H25.756V74.287ZM26.0682 67.4907C25.9947 67.75 25.7468 68.3333 25.15 68.1574C24.7276 68.037 24.7184 67.3796 24.7184 67.3796C24.6725 66.75 24.1307 66.5277 24.1307 66.5277L14.0579 63.6018C13.507 63.4444 13.3876 63.6852 13.3876 63.6852C13.3876 63.6852 13.0846 64.3333 12.552 64.1759C11.9184 63.9907 12.2765 63.0741 12.2765 63.0741L13.6722 58.2129L27.5741 62.2685L26.0682 67.4907ZM27.8128 61.4629L26.7568 61.1574C26.7568 61.1574 27.1425 59.9722 25.9396 59.6111L16.4453 56.8426C15.2608 56.5 14.9577 57.7129 14.9577 57.7129L13.9018 57.3981C13.9018 57.3981 15.5362 50.8981 22.7167 52.9815C29.888 55.074 27.8128 61.4629 27.8128 61.4629ZM29.337 54.824C28.9514 54.6203 29.0799 53.9815 29.0799 53.9815C29.1717 53.3518 28.6759 53.0185 28.6759 53.0185L19.4662 47.9722C18.9704 47.7037 18.7959 47.9259 18.7959 47.9259C18.7959 47.9259 18.3643 48.4907 17.8777 48.2129C17.2992 47.8889 17.8318 47.0833 17.8318 47.0833L20.2467 42.6296C20.2467 42.6296 20.6231 41.7129 21.2108 42.037C21.7066 42.2963 21.4587 42.9629 21.4587 42.9629C21.4587 42.9629 21.3669 43.2222 21.8719 43.5L31.0908 48.5555C31.0908 48.5555 31.6326 48.787 32.11 48.3703C32.11 48.3703 32.5692 47.9166 32.9548 48.1296C33.5057 48.4259 33.2762 49.0092 33.1293 49.25L30.3746 54.3518C30.2461 54.6203 29.888 55.1111 29.337 54.824ZM44.1387 128.25C41.1729 129.917 38.7304 128.12 38.7304 128.12L39.3456 127.268C39.3456 127.268 41.3565 128.583 43.5878 127.37C43.5878 127.37 44.1938 126.991 44.4601 127.509C44.6804 127.917 44.1387 128.25 44.1387 128.25ZM45.5987 117.241C45.5987 117.241 44.6621 116.509 43.9734 117.472L38.4274 125.157C37.7387 126.12 38.7028 126.796 38.7028 126.796L38.0876 127.648C38.0876 127.648 32.8354 124.074 37.0317 118.259C41.2279 112.463 46.223 116.38 46.223 116.38L45.5987 117.241ZM47.0311 123.62C46.673 123.361 46.9668 122.768 46.9668 122.768C48.087 119.694 46.2506 117.704 46.2506 117.704L46.875 116.843C46.875 116.843 47.6279 117.407 48.1972 118.5C48.1972 118.5 48.6471 119.565 49.1705 119.343C49.5103 119.204 49.8776 119.046 50.1347 119.241C50.4101 119.435 50.4285 119.796 50.2816 120C50.1255 120.231 47.784 123.472 47.784 123.472C47.784 123.472 47.4351 123.935 47.0311 123.62ZM51.4477 135C51.4477 135 45.5068 132.898 48.1054 126.204C50.7131 119.519 56.4979 122.028 56.4979 122.028L56.1123 123.018C56.1123 123.018 55.0288 122.565 54.6064 123.667L51.1631 132.509C50.7315 133.62 51.8242 134.009 51.8242 134.009L51.4477 135ZM52.2098 135.306L52.5955 134.315C52.5955 134.315 53.6606 134.768 54.1014 133.676L57.5539 124.833C57.9854 123.722 56.8927 123.333 56.8927 123.333L57.2692 122.343C57.2692 122.343 63.2101 124.444 60.6115 131.139C58.0038 137.806 52.2098 135.306 52.2098 135.306ZM66.9472 139.018L61.5114 138.268C61.2451 138.222 60.6666 138.074 60.7584 137.491C60.8135 137.056 61.4287 136.963 61.4287 136.963C61.998 136.833 62.1449 136.287 62.1449 136.287L63.5498 126.296C63.6325 125.75 63.3662 125.667 63.3662 125.667C63.3662 125.667 62.7326 125.472 62.7877 124.944C62.8887 124.306 63.7885 124.528 63.7885 124.528L68.5357 125.194L66.8646 136.944C66.8646 136.944 66.8462 137.519 67.3788 137.796C67.3788 137.796 67.9297 138.074 67.8746 138.491C67.8012 139.074 67.2043 139.065 66.9472 139.018ZM71.0884 129.815L70.4273 134.518C70.3905 134.759 69.711 135.343 69.4815 134.102C69.2611 132.88 68.3613 132.287 68.3613 132.287L68.4806 131.38C68.4806 131.38 69.5182 131.074 70.0783 129.944C70.6293 128.833 71.1251 129.565 71.0884 129.815ZM73.1268 129.157C73.1268 129.157 73.0901 129.759 72.7779 129.806C72.3096 129.87 72.2361 129.398 72.2361 129.398C72.2361 129.398 71.9607 128.537 71.1894 127.5C70.4273 126.463 69.206 126.259 69.206 126.259L69.3346 125.296L73.5859 125.889L73.1268 129.157ZM82.2263 139.111L76.7538 139.676C76.4967 139.704 75.8998 139.694 75.8447 139.111C75.7896 138.685 76.3681 138.444 76.3681 138.444C76.9099 138.176 76.9007 137.602 76.9007 137.602L75.8998 127.574C75.8447 127.028 75.5785 127.009 75.5785 127.009C75.5785 127.009 74.899 126.972 74.8531 126.444C74.7888 125.806 75.7254 125.806 75.7254 125.806L80.4817 125.306L81.6479 137.111C81.6479 137.111 81.7672 137.667 82.3457 137.815C82.3457 137.815 82.9609 137.935 82.9977 138.361C83.0711 138.935 82.4926 139.065 82.2263 139.111ZM83.5302 133.713C83.0252 132.574 81.9968 132.222 81.9968 132.222L81.9142 131.315C81.9142 131.315 82.8416 130.759 83.1078 129.537C83.3741 128.324 84.0444 128.926 84.0628 129.167L84.5403 133.889C84.5678 134.13 84.0444 134.852 83.5302 133.713ZM85.6972 128.741C85.2656 128.917 85.082 128.491 85.082 128.491C85.082 128.491 84.6045 127.713 83.622 126.898C82.6395 126.083 81.3908 126.167 81.3908 126.167L81.299 125.204L85.5687 124.759L85.89 128.037C85.89 128.037 86.0002 128.62 85.6972 128.741ZM92.0421 137.324C91.7942 137.407 91.2157 137.546 91.0137 136.981C90.8668 136.593 91.3626 136.222 91.3626 136.222C91.8217 135.824 91.684 135.278 91.684 135.278L88.2958 125.796C88.1121 125.278 87.855 125.333 87.855 125.333C87.855 125.333 87.1939 125.463 87.0194 124.963C86.8083 124.361 87.7081 124.13 87.7081 124.13L92.1982 122.5L96.8536 135.565L92.0421 137.324ZM92.9603 122.194L96.9913 120.722L98.1023 123.815C98.1023 123.815 98.3411 124.352 98.0748 124.556C97.6983 124.824 97.4137 124.454 97.4137 124.454C97.4137 124.454 96.7525 123.815 95.614 123.269C94.4662 122.722 93.2725 123.102 93.2725 123.102L92.9603 122.194ZM95.3477 128.824L95.0355 127.963C95.0355 127.963 95.816 127.204 95.7792 125.944C95.7333 124.704 96.5138 125.12 96.6056 125.352L98.1942 129.806C98.2768 130.037 97.9462 130.87 97.1749 129.898C96.422 128.907 95.3477 128.824 95.3477 128.824ZM97.6432 135.287L97.3218 134.389C97.3218 134.389 98.488 133.907 99.0114 132.75C99.5439 131.593 99.6357 130.676 99.6357 130.676C99.6357 130.676 99.6174 130.204 100.095 130.167C100.416 130.139 100.572 130.713 100.572 130.713L101.683 133.815L97.6432 135.287ZM106.201 131.398C105.971 131.546 105.448 131.815 105.127 131.324C104.897 130.972 105.292 130.491 105.292 130.491C105.632 129.991 105.365 129.491 105.365 129.491L99.8286 121.111C99.5348 120.657 99.2868 120.759 99.2868 120.759C99.2868 120.759 98.6808 121.037 98.387 120.602C98.0289 120.065 98.8553 119.62 98.8553 119.62L102.84 116.954L110.462 128.528L106.201 131.398ZM107.128 119.454C106.807 118.259 107.67 118.463 107.799 118.667L110.397 122.62C110.535 122.824 110.397 123.722 109.433 122.944C108.46 122.176 107.386 122.352 107.386 122.352L106.89 121.593C106.89 121.583 107.45 120.667 107.128 119.454ZM109.047 117.546C108.744 117.907 108.386 117.62 108.386 117.62C108.386 117.62 107.606 117.148 106.366 116.889C105.118 116.639 104.043 117.296 104.043 117.296L103.511 116.5L107.092 114.093L108.891 116.843C108.891 116.833 109.259 117.287 109.047 117.546ZM111.15 128.093L110.618 127.287C110.618 127.287 111.646 126.546 111.885 125.268C112.133 124.018 112.013 123.12 112.013 123.12C112.013 123.12 111.885 122.676 112.335 122.528C112.638 122.426 112.913 122.935 112.913 122.935L114.731 125.676L111.15 128.093ZM75 120.787C50.2632 120.852 30.2277 100.685 30.2277 75.7315C30.2277 50.787 50.2724 30.5092 75 30.4444C99.7368 30.3889 119.781 50.5648 119.781 75.5092C119.791 100.463 99.7368 120.731 75 120.787ZM118.23 51.4166L119.212 50.8518C119.534 51.3426 119.892 51.6666 120.525 52.0277C121.177 52.4166 121.82 52.4537 122.453 52.1018C123.261 51.6111 123.454 50.6389 123.032 49.1389L122.545 47.5185C122.352 46.9074 122.196 46.3426 122.095 45.824C121.948 45.1203 121.912 44.4444 122.022 43.8518C122.114 43.2592 122.352 42.7222 122.692 42.25C123.032 41.787 123.464 41.4074 123.987 41.1296C125.135 40.4722 126.301 40.3426 127.513 40.75C128.679 41.1574 129.762 42.2315 130.488 43.4815L129.496 44.0463C129.111 43.3703 128.505 42.6574 127.944 42.3703C127.412 42.0833 126.925 42.0926 126.457 42.3426C126.062 42.574 125.888 42.8981 125.934 43.3148C125.97 43.7592 126.09 44.2407 126.282 44.7778L126.852 46.4537C127.338 47.9815 127.393 49.2407 127.256 50.2592C127.054 51.5648 126.429 53.2222 125.208 53.9259C124.703 54.2129 124.207 54.4352 123.656 54.5092C122.582 54.6852 121.535 54.4259 120.571 53.8796C119.607 53.3426 118.753 52.3611 118.23 51.4166ZM122.307 59.287C122.307 59.287 122.518 58.5 122.049 58.1296C121.737 57.8889 121.352 57.75 121.269 57.4166C121.168 57.0833 121.388 56.7778 121.636 56.7037C121.93 56.6111 125.208 55.6944 125.208 55.6944C125.208 55.6944 125.64 55.5648 125.796 56.1018C125.915 56.5833 125.291 56.8981 125.291 56.8981C122.527 58.8796 123.454 61.25 123.454 61.25L122.389 61.5555C122.389 61.5463 122.059 60.5277 122.307 59.287ZM122.628 62.3703L123.711 62.0648C123.904 62.6018 124.18 63.0185 124.703 63.5185C125.254 64.0555 125.869 64.2315 126.567 64.0463C127.467 63.7685 127.889 62.8611 127.825 61.3055L127.733 59.6203C127.669 58.9722 127.66 58.3703 127.687 57.8611C127.696 57.1203 127.834 56.4722 128.082 55.9166C128.312 55.3611 128.661 54.8981 129.101 54.5278C129.551 54.1574 130.065 53.8889 130.626 53.75C131.874 53.3703 133.059 53.537 134.124 54.2315C135.152 54.8889 135.96 56.1852 136.374 57.5926L135.29 57.9074C135.061 57.1389 134.647 56.324 134.17 55.8981C133.72 55.5092 133.243 55.3796 132.728 55.5278C132.297 55.6481 132.049 55.9259 131.985 56.3426C131.929 56.7777 131.929 57.2778 131.985 57.8518L132.15 59.6111C132.26 61.2222 132.021 62.4537 131.645 63.3981C131.149 64.6389 130.166 66.0926 128.798 66.4722C128.238 66.6203 127.715 66.7315 127.164 66.6852C126.08 66.5833 125.116 66.0833 124.308 65.3148C123.519 64.5555 122.913 63.4074 122.628 62.3703ZM131.452 67.1203C138.917 66.9444 138.825 73.6203 138.825 73.6203L137.723 73.6389C137.723 73.6389 137.733 72.4074 136.493 72.4352L126.613 72.6666C125.383 72.6944 125.428 73.9444 125.428 73.9444L124.327 73.9629C124.336 73.9629 123.978 67.2963 131.452 67.1203ZM124.363 74.8333L125.456 74.8148C125.456 74.8148 125.456 76.0555 126.686 76.0185L136.566 75.787C137.806 75.7592 137.742 74.5185 137.742 74.5185L138.834 74.5C138.834 74.5 139.211 81.1574 131.737 81.3333C124.272 81.5092 124.363 74.8333 124.363 74.8333Z" fill="#FEFEFE"/>
<path d="M60.6759 150L63.7336 146.463L59.1333 145.574L60.6759 150Z" fill="#FEFEFE"/>
<path d="M89.0672 149.981L90.6189 145.556L86.0187 146.435L89.0672 149.981Z" fill="#FEFEFE"/>
<path d="M55.1757 148.722L58.4997 145.426L53.9821 144.185L55.1757 148.722Z" fill="#FEFEFE"/>
<path d="M94.5213 148.704L95.7333 144.176L91.2157 145.407L94.5213 148.704Z" fill="#FEFEFE"/>
<path d="M49.8409 147.037L53.3944 144.009L48.9869 142.444L49.8409 147.037Z" fill="#FEFEFE"/>
<path d="M99.8654 147.019L100.738 142.417L96.321 143.982L99.8654 147.019Z" fill="#FEFEFE"/>
<path d="M44.6529 144.972L48.4084 142.213L44.1295 140.306L44.6529 144.972Z" fill="#FEFEFE"/>
<path d="M105.063 144.944L105.604 140.269L101.316 142.185L105.063 144.944Z" fill="#FEFEFE"/>
<path d="M39.6211 142.509L43.5786 140.046L39.4558 137.824L39.6211 142.509Z" fill="#FEFEFE"/>
<path d="M110.094 142.472L110.278 137.787L106.155 140.009L110.094 142.472Z" fill="#FEFEFE"/>
<path d="M34.8004 139.676L38.914 137.509L34.9657 134.972L34.8004 139.676Z" fill="#FEFEFE"/>
<path d="M110.82 137.472L114.942 139.63L114.777 134.944L110.82 137.472Z" fill="#FEFEFE"/>
<path d="M119.524 131.407L123.932 132.917L123.078 128.315L119.524 131.407Z" fill="#FEFEFE"/>
<path d="M115.282 134.602L119.561 136.445L119.056 131.787L115.282 134.602Z" fill="#FEFEFE"/>
<path d="M22.9464 124.583L21.7527 129.111L26.252 127.926L22.9464 124.583Z" fill="#FEFEFE"/>
<path d="M26.7017 128.352L25.8386 132.972L30.2369 131.435L26.7017 128.352Z" fill="#FEFEFE"/>
<path d="M30.191 136.491L34.4607 134.639L30.7144 131.824L30.191 136.491Z" fill="#FEFEFE"/>
<path d="M123.528 127.889L128.027 129.074L126.843 124.537L123.528 127.889Z" fill="#FEFEFE"/>
<path d="M19.503 120.556L17.9604 124.981L22.5423 124.139L19.503 120.556Z" fill="#FEFEFE"/>
<path d="M130.708 120.019L135.327 120.519L133.49 116.213L130.708 120.019Z" fill="#FEFEFE"/>
<path d="M127.256 124.074L131.828 124.935L130.313 120.5L127.256 124.074Z" fill="#FEFEFE"/>
<path d="M16.3351 116.269L14.4803 120.583L19.1081 120.074L16.3351 116.269Z" fill="#FEFEFE"/>
<path d="M13.5162 111.769L11.3492 115.907L15.9954 115.759L13.5162 111.769Z" fill="#FEFEFE"/>
<path d="M133.839 115.704L138.486 115.852L136.355 111.704L133.839 115.704Z" fill="#FEFEFE"/>
<path d="M11.0187 107.056L8.55786 111.037L13.2132 111.222L11.0187 107.056Z" fill="#FEFEFE"/>
<path d="M136.649 111.167L141.295 110.972L138.853 106.991L136.649 111.167Z" fill="#FEFEFE"/>
<path d="M8.88839 102.167L6.1521 105.954L10.7524 106.5L8.88839 102.167Z" fill="#FEFEFE"/>
<path d="M139.119 106.426L143.729 105.889L140.992 102.111L139.119 106.426Z" fill="#FEFEFE"/>
<path d="M7.12539 97.1389L4.09528 100.713L8.668 101.602L7.12539 97.1389Z" fill="#FEFEFE"/>
<path d="M141.231 101.537L145.785 100.648L142.783 97.0647L141.231 101.537Z" fill="#FEFEFE"/>
<path d="M5.74803 91.9907L2.46082 95.3148L6.9509 96.5555L5.74803 91.9907Z" fill="#FEFEFE"/>
<path d="M142.967 96.4814L147.447 95.25L144.188 91.9166L142.967 96.4814Z" fill="#FEFEFE"/>
<path d="M4.7564 86.7407L1.23962 89.8241L5.60116 91.3796L4.7564 86.7407Z" fill="#FEFEFE"/>
<path d="M144.344 91.2778L148.714 89.7037L145.216 86.6296L144.344 91.2778Z" fill="#FEFEFE"/>
<path d="M4.14114 81.4352L0.403992 84.2407L4.66452 86.1389L4.14114 81.4352Z" fill="#FEFEFE"/>
<path d="M145.308 85.9907L149.568 84.0833L145.85 81.287L145.308 85.9907Z" fill="#FEFEFE"/>
<path d="M3.92079 76.1018L0 78.6203L4.09525 80.8148L3.92079 76.1018Z" fill="#FEFEFE"/>
<path d="M145.886 80.6388L149.991 78.4259L146.07 75.9166L145.886 80.6388Z" fill="#FEFEFE"/>
<path d="M4.10447 70.7314L0.00921631 72.9537L3.92082 75.4629L4.10447 70.7314Z" fill="#FEFEFE"/>
<path d="M4.68289 65.3982L0.422363 67.2963L4.15033 70.0834L4.68289 65.3982Z" fill="#FEFEFE"/>
<path d="M5.64707 60.1019L1.258 61.676L4.78395 64.7408L5.64707 60.1019Z" fill="#FEFEFE"/>
<path d="M145.271 64.6481L148.797 61.5648L144.408 59.9907L145.271 64.6481Z" fill="#FEFEFE"/>
<path d="M7.00601 54.8796L2.51593 56.1296L5.78478 59.4445L7.00601 54.8796Z" fill="#FEFEFE"/>
<path d="M144.28 59.3981L147.567 56.074L143.086 54.8425L144.28 59.3981Z" fill="#FEFEFE"/>
<path d="M8.7323 49.8427L4.16876 50.7315L7.1897 54.2871L8.7323 49.8427Z" fill="#FEFEFE"/>
<path d="M142.911 54.2407L145.941 50.6759L141.387 49.787L142.911 54.2407Z" fill="#FEFEFE"/>
<path d="M10.835 44.9445L6.22559 45.4815L8.96187 49.2593L10.835 44.9445Z" fill="#FEFEFE"/>
<path d="M141.167 49.2037L143.912 45.426L139.294 44.8889L141.167 49.2037Z" fill="#FEFEFE"/>
<path d="M13.2958 40.1852L8.64966 40.3889L11.1013 44.3704L13.2958 40.1852Z" fill="#FEFEFE"/>
<path d="M139.036 44.3241L141.506 40.3426L136.851 40.1482L139.036 44.3241Z" fill="#FEFEFE"/>
<path d="M74.9358 37.6852C54.2024 37.7315 37.3072 54.787 37.3164 75.713C37.3072 96.6296 54.1932 113.62 74.9266 113.565C95.6691 113.519 112.546 96.4445 112.555 75.5278C112.555 54.6111 95.6783 37.6296 74.9358 37.6852ZM75.0001 111.139C55.5522 111.194 39.7864 95.3241 39.7956 75.7037C39.8048 56.0926 55.5706 40.1482 75.0184 40.1019C94.4663 40.0556 110.232 55.9167 110.232 75.5278C110.223 95.1482 94.4571 111.093 75.0001 111.139Z" fill="#FEFEFE"/>
<path d="M16.0963 35.6667L11.4593 35.5L13.5987 39.6574L16.0963 35.6667Z" fill="#FEFEFE"/>
<path d="M136.557 39.6111L138.724 35.4537L134.078 35.6019L136.557 39.6111Z" fill="#FEFEFE"/>
<path d="M75.0092 32.8889C51.6039 32.9537 32.6519 52.1297 32.6519 75.7222C32.6519 99.3241 51.6039 118.407 75 118.343C98.3962 118.287 117.367 99.1111 117.376 75.5185C117.367 51.9167 98.4054 32.8334 75.0092 32.8889ZM74.9358 116.528C52.5772 116.583 34.3873 98.2685 34.3965 75.7222C34.3965 53.1759 52.5772 34.7871 74.945 34.7315C97.3036 34.6759 115.493 52.9722 115.493 75.5185C115.484 98.0648 97.2944 116.472 74.9358 116.528Z" fill="#FEFEFE"/>
<path d="M71.6668 106.602C70.5007 105.25 71.0792 101.87 68.4714 101.87C67.9021 103.796 66.3228 105.481 66.8462 107.537C68.8479 109.528 72.2545 109.37 74.9173 109.157C76.6987 107.426 76.111 104.556 75.7345 102.519C73.3288 102.324 73.5951 105.556 71.6668 106.602ZM68.903 106.833C68.5724 106.704 68.3704 106.491 68.3429 106.13C68.5357 105.315 69.7202 105.565 69.6651 106.306C69.5182 106.648 69.2427 106.815 68.903 106.833ZM73.944 107.5C73.5216 107.389 73.3747 106.963 73.5124 106.611C73.742 106 74.8163 106.278 74.7061 106.972C74.5041 107.167 74.3388 107.833 73.944 107.5Z" fill="#FEFEFE"/>
<path d="M99.7551 85.6945C99.1767 86.3426 99.0757 87.1296 98.7727 87.8611C99.7368 89.1019 101.27 90.0185 101.895 91.5278C99.6909 92.213 96.5138 90.0556 95.412 93.0833C96.3118 94.4352 98.2768 95.0463 99.4154 96.2963C100.637 96.75 102.179 96.0556 102.794 94.8333C103.511 92.4074 106.926 90.1204 104.971 87.6574L99.7551 85.6945ZM100.738 94.2593C100.499 94.6204 100.187 95.1019 99.7368 94.8889C99.0757 94.463 99.2409 93.7037 99.8011 93.4815C100.159 93.4537 100.866 93.6667 100.738 94.2593ZM103.887 90.0185C103.474 90.5185 103.143 90.1204 102.73 89.8519C102.39 89.463 102.85 88.75 103.382 88.8333C103.915 88.9259 103.961 89.6389 103.887 90.0185Z" fill="#FEFEFE"/>
<path d="M93.9888 94.5277C91.7942 95.9814 94.0622 98.7499 94.2551 100.407C92.4829 100.435 90.977 98.4351 89.1406 98.6759C88.6907 98.9722 88.1122 99.6296 88.3326 100.194C89.7007 101.852 89.5262 105.657 92.639 104.889C94.6958 103.259 96.7343 101.676 98.3503 99.4259C98.5248 97.0555 95.917 95.8703 93.9888 94.5277ZM91.8769 103.185C91.4729 103.028 91.3443 102.593 91.4729 102.25C91.7024 101.63 92.7492 101.972 92.6298 102.676C92.5472 102.944 92.235 103.167 91.8769 103.185ZM96.9087 98.8981C96.7343 99.3055 96.3027 99.4351 95.9813 99.3148C95.5498 98.9444 95.9079 98.2499 96.4037 98.1388C96.5965 98.361 97.175 98.4814 96.9087 98.8981Z" fill="#FEFEFE"/>
<path d="M83.4568 105.954L82.9701 106.065C81.5652 104.546 80.647 101.148 77.874 102.306C77.3965 104.222 77.4975 106.574 78.0209 108.361C80.5736 110.806 84.4393 108.481 87.4051 107.685C90.7382 105.518 86.7991 102.602 86.3767 100.111C83.6037 100.509 84.2281 103.991 83.4568 105.954ZM80.4634 107.065C80.1787 106.981 79.5819 107.259 79.5543 106.657C79.4901 106.102 80.1328 105.759 80.5919 105.954C80.9133 106.259 80.8123 106.796 80.4634 107.065ZM86.7072 105.63C86.4869 105.565 86.34 105.806 86.2573 105.926C85.8258 106.074 85.4126 105.546 85.587 105.148C85.8992 104.157 87.1296 104.861 86.7072 105.63Z" fill="#FEFEFE"/>
<path d="M44.9009 85.6944C45.8283 84.5185 47.2332 83.8981 48.2708 82.9629C48.1147 81.9999 47.7749 81.0925 47.8392 80.2129L43.5695 81.074C42.789 81.7592 42.4401 82.3055 42.183 83.2407C43.3216 85.6851 43.845 88.4999 45.3325 90.6666C47.5178 91.8425 48.9778 89.4629 50.7316 88.824C50.7224 85.1574 46.5262 87.3611 44.9009 85.6944ZM44.1021 82.8703C44.2398 82.0277 45.4794 82.3148 45.3233 83.074C45.1856 83.4259 44.9835 83.6203 44.6254 83.6388C44.2949 83.5092 44.1296 83.2314 44.1021 82.8703ZM46.6455 88.8796L46.113 88.5277L46.6822 87.6203C46.9761 87.8148 47.3801 87.9999 47.325 88.4629C47.2975 88.7962 46.9393 88.8148 46.6455 88.8796Z" fill="#FEFEFE"/>
<path d="M51.4386 96.4907C51.108 96.3611 50.4469 96.6111 50.5571 95.9074L52.4578 92.0463C52.0171 90.6481 50.8326 90.1296 49.7399 91.2963C48.6105 92.2592 46.8751 92.7407 47.2424 94.5092C49.0145 96.6018 50.805 99.0555 53.0179 100.593C55.0197 100.111 55.7175 97.8518 57.1132 96.4629C55.7175 93.9259 53.2291 96.4722 51.4386 96.4907ZM50.199 93.9815C50.1256 94.3611 49.8134 94.3241 49.5103 94.3796C49.189 94.0926 48.739 93.3611 49.5103 93.2037C49.9511 93.0555 50.3643 93.5926 50.199 93.9815ZM54.1106 97.9907C54.0739 98.3148 53.6607 98.2963 53.4311 98.3981C53.1189 98.1852 52.9261 97.9815 52.9078 97.6296C53.0271 96.7685 54.5514 97.1667 54.1106 97.9907Z" fill="#FEFEFE"/>
<path d="M60.079 103.509C59.5005 102.194 60.4004 100.657 60.6024 99.1667L58.1599 97.5648L55.7174 101.093C55.1849 104.407 59.8953 105.343 61.9889 107.065L63.2193 107.009C65.8178 106.491 65.6158 103.546 66.6534 101.667C64.2018 99.7222 62.347 103.12 60.079 103.509ZM57.4712 101.806C57.407 101.5 57.7559 100.963 58.1875 101.074C58.518 101.222 58.6833 101.491 58.7108 101.843C58.417 102.167 57.7008 102.63 57.4712 101.806ZM63.4672 104.528C63.3111 104.769 63.0815 105.13 62.7877 104.917C62.4847 104.731 62.2919 104.519 62.2643 104.167C62.5949 103.537 63.7151 103.759 63.4672 104.528Z" fill="#FEFEFE"/>
<path d="M49.2348 80.5278C51.6406 80.9908 54.7992 80.4074 57.3427 80.1111L56.9662 76.3796C54.386 75.7963 51.5028 76.2037 48.9502 76.25L49.2348 80.5278Z" fill="#FEFEFE"/>
<path d="M101.592 74.1203C101.95 74.8703 101.472 75.4907 101.619 76.1759C103.079 77.0555 104.98 77.6111 106.008 78.7963C104.282 79.3703 102.703 80.1296 100.829 80.5277C100.664 81.7037 99.801 82.9166 100.251 84.0648C102.243 84.5092 104.006 85.8333 106.173 85.4629C108.037 84.3888 107.982 82.1388 108.441 80.3888C108.552 78.4907 108.552 76.287 108.175 74.5C106.614 72.2129 103.593 73.8888 101.592 74.1203ZM105.641 82.8888L105.301 83.4351C104.741 83.5 104.043 82.8703 104.539 82.3518C104.741 81.7963 106.109 82.0185 105.641 82.8888ZM106.862 76.2963C106.697 76.9537 106.183 76.6944 105.806 76.6203C105.365 76.25 105.476 75.2963 106.247 75.2777C106.596 75.5092 107.073 75.8333 106.862 76.2963Z" fill="#FEFEFE"/>
<path d="M49.1798 74.3426C51.7324 74.8148 54.1841 74.2963 56.7734 74.2037L56.7183 70.5C54.5146 70 52.1364 70.3982 49.9786 69.9445C49.4093 71.3519 48.8309 72.9259 49.1798 74.3426Z" fill="#FEFEFE"/>
<path d="M89.6732 47.2222C89.9303 48.25 89.6089 49.1481 89.2875 50.037C88.3785 52 89.3426 53.4907 91.3535 54.037L94.5856 49.4167C95.0539 47.25 92.639 46.787 91.3259 45.6759C89.4252 45.1018 87.6439 43.4259 85.5504 43.9259C83.6405 45.0741 83.466 47.6944 82.6947 49.6574C85.3575 51.5648 87.2674 47.6852 89.6732 47.2222ZM92.5104 49.5C92.3544 50 92.0513 49.8055 91.7024 49.8241C91.3627 49.6944 91.4086 49.3704 91.2984 49.1389C91.5004 48.1667 93.1257 48.8055 92.5104 49.5ZM85.9268 46.2222C86.0554 45.3704 87.295 45.6574 87.1389 46.4167C86.9461 46.9815 86.5237 47.1296 86.0646 46.9167C86.0829 46.6574 85.8075 46.4074 85.9268 46.2222Z" fill="#FEFEFE"/>
<path d="M92.9603 55.0741C94.4937 57.5371 97.1749 54.6852 99.1307 54.2686L99.5531 54.5371C99.4338 56.8334 95.2651 59.2223 98.2584 61.2778C99.948 59.8149 103.465 59.9815 103.41 57.0463C102.179 54.3704 99.8469 52.5001 97.7167 50.4352C95.1273 50.2686 93.9153 53.3334 92.9603 55.0741ZM101.334 56.463C101.748 56.75 101.784 57.1019 101.656 57.5371C101.27 57.8797 100.471 57.9445 100.38 57.3056C100.279 56.7963 100.967 56.3982 101.334 56.463ZM97.8177 53.1575C97.6891 53.4908 97.4045 53.6575 97.0648 53.676C96.7617 53.4815 96.4404 53.1852 96.6148 52.7871C96.7342 52.3519 97.2209 52.25 97.4963 52.3426C97.5698 52.6389 98.1207 52.8241 97.8177 53.1575Z" fill="#FEFEFE"/>
<path d="M99.3328 64.0277C99.7093 66.574 102.877 64.8148 104.649 65.2036C104.264 67.2499 102.051 67.9259 101.013 69.5555C101.417 70.4814 100.976 71.574 101.693 72.287L106.21 71.574C109.553 69.4999 106.44 65.4259 106.32 62.6111C105.834 60.3425 103.153 60.4629 101.491 61.324C100.591 61.9536 98.2769 62.1388 99.3328 64.0277ZM105.255 69.2592C105.072 69.6573 104.704 70.1018 104.264 69.8796C104.199 69.5833 103.97 69.2685 103.942 69.074C104.098 68.6759 104.53 68.537 104.87 68.6573C105.182 68.6944 105.145 69.0185 105.255 69.2592ZM102.794 62.9629C103.061 62.7129 103.162 62.2685 103.566 62.4444C103.869 62.6296 104.062 62.8518 104.08 63.2129C103.896 63.7685 103.456 63.9073 103.006 63.7036C102.767 63.5462 102.648 63.2036 102.794 62.9629Z" fill="#FEFEFE"/>
<path d="M65.1107 46.0741C66.4789 46.9815 67.3879 48.5741 68.6826 49.6852C69.3345 49.6018 69.7753 49.287 70.2436 49.0926C69.8579 46.787 70.8037 43.5 68.2419 42.2407C65.0465 42.8796 61.0706 43.6944 59.5004 46.9166C59.3627 49.2222 61.0339 50.8148 62.1724 52.5926C66.2861 52.3796 63.7793 48.0092 65.1107 46.0741ZM66.7819 44.7963C67.0849 44.0463 68.3704 44.5555 67.9021 45.2592C67.6083 45.3333 67.4614 45.5741 67.1033 45.5926C66.5523 45.4074 66.7452 45.1111 66.7819 44.7963ZM61.5848 47.8703C61.5664 47.5092 61.8602 46.6852 62.3194 46.9907C62.9162 47.1296 62.7601 47.6203 62.6958 48.0092C62.301 48.0833 61.8327 48.2778 61.5848 47.8703Z" fill="#FEFEFE"/>
<path d="M54.2575 59.2592C56.9663 57.7962 53.6332 55.1018 53.8994 52.8888C56.2225 52.8055 58.8303 56.2036 60.6392 53.6388L57.6917 48.824C54.3769 47.4073 52.265 51.7499 49.9878 53.8425C49.9419 56.537 52.3568 57.7592 54.2575 59.2592ZM56.9755 51.2314C56.7 51.6573 56.3511 51.6851 55.9103 51.5647C55.6991 51.5092 55.7359 51.2036 55.6991 50.9999C56.0205 50.361 57.003 50.4073 56.9755 51.2314ZM51.7141 54.6944C51.8702 53.9444 53.1373 54.1758 52.8802 55.111C52.5772 55.1758 52.366 55.6388 52.0538 55.3518C51.8794 55.2221 51.4202 55.0277 51.7141 54.6944Z" fill="#FEFEFE"/>
<path d="M48.7391 68.3518C51.3652 65.7221 46.7741 64.6017 46.517 62.3888C48.785 61.4814 52.2375 64.7592 53.073 60.7221C51.3284 59.4906 49.8226 56.4536 47.2424 57.5832C45.562 59.8054 44.2949 62.5555 43.5603 65.148C44.2857 67.4073 46.9853 67.5462 48.7391 68.3518ZM48.8584 59.3888C49.0972 59.8054 49.1155 59.9166 49.0696 60.3888L48.1238 60.5277C47.7657 60.0369 48.2708 59.2684 48.8584 59.3888ZM45.3416 64.8518C45.6906 64.3055 46.6272 64.9351 46.4251 65.3888C46.2874 65.7314 46.0119 65.898 45.663 65.9166C45.259 65.648 45.2223 65.2869 45.3416 64.8518Z" fill="#FEFEFE"/>
<path d="M46.3149 78.7778C47.2974 78.8241 47.7381 77.7501 47.5912 76.7964C46.0027 75.3427 44.0744 75.176 42.6328 74.1482C44.0193 72.926 45.9843 72.6019 47.481 71.6112C49.3542 69.0927 45.112 69.389 43.9734 68.2871C43.046 68.2871 42.0911 68.8519 41.6871 69.8704C41.3473 72.6297 40.8239 75.5371 41.5218 78.3704C42.6145 80.1019 44.8274 79.0093 46.3149 78.7778ZM43.9826 70.0927C44.2856 70.2871 44.4692 70.5093 44.4968 70.8612C44.1387 71.0464 43.9 71.9167 43.3858 71.4075C43.0736 70.8704 43.3307 70.0834 43.9826 70.0927ZM43.6153 76.676C43.9183 76.8704 44.5886 77.139 44.0652 77.5741C43.9275 78.0741 43.6153 77.8704 43.3031 77.8427C42.8624 77.463 42.9634 76.6667 43.6153 76.676Z" fill="#FEFEFE"/>
<path d="M79.9492 51.6852C73.7696 52.5185 68.8388 55.5926 64.5782 59.4444L64.8721 59.6389C70.1886 57.8333 75.4499 58.2963 80.0961 55.537C80.243 54.2685 80.3624 52.9074 79.9492 51.6852Z" fill="#FEFEFE"/>
<path d="M71.5291 84.3426C73.7879 85.3981 79.6278 87.0648 81.5561 86.4352C81.5561 86.4352 81.6662 80.0926 81.9325 77.1018C85.587 76.9259 86.2849 77.0555 89.7649 76.3518C90.7566 76.2315 91.3442 75.5555 90.9311 74.287C88.7641 69.6481 85.9176 66.9815 82.4008 64.537C79.1687 63.2778 80.3348 60.037 79.9124 58.0555L77.6169 58.7592L77.9016 58.9629C79.2789 59.6944 79.3523 61.9444 79.1779 63.2685C79.1595 65.1296 76.2304 65.3518 77.4516 67.25C77.2313 67.7037 76.8364 67.9537 76.3314 67.9629C71.9974 65.1296 67.1401 64.1667 62.7051 61.8704C60.4554 64.0648 58.619 67.5463 58.2517 70.6296C58.3252 77.5926 58.9679 85.5092 63.5774 90.9074C67.4339 96.5741 74.5684 100.565 81.2622 100.259C81.7489 94.5278 80.8949 94.0926 81.5928 88.4166C76.2396 87.8241 73.9349 87.6944 69.959 85.2778C69.6651 84.8241 69.252 84.4722 69.8212 83.9815C70.2344 83.5833 71.1343 84.1759 71.5291 84.3426ZM74.4215 78.75C74.045 78.9352 73.7788 79.3518 73.4298 79.1296C73.0166 78.9444 72.5943 78.5741 72.8055 78.1111C73.2737 77.3981 75.1194 77.6759 74.4215 78.75ZM75.5876 76.5C75.2204 76.6759 74.9449 77.1018 74.596 76.8611C74.2011 76.6944 73.7696 76.3241 73.9808 75.8611C74.4399 75.1389 76.2947 75.4167 75.5876 76.5ZM74.7888 74.1296C74.7612 73.7778 75.0367 73.0926 75.6152 73.2222C75.9182 73.4167 76.313 73.5926 76.2579 74.0648C75.9641 74.6574 75.0734 75.0092 74.7888 74.1296ZM76.1753 71.9722C76.0651 72.3981 75.6336 72.5555 75.303 72.4166C74.8623 72.3055 74.8714 71.6296 74.9724 71.3518C75.3122 70.5555 76.6436 71.25 76.1753 71.9722ZM75.1561 69.25C75.5509 69.6759 75.404 70.4352 74.8255 70.6666L73.9349 70.0741C73.9716 69.5092 74.5868 68.8148 75.1561 69.25ZM72.8238 68.1481C72.934 67.7129 73.3564 67.5741 73.6961 67.7129C74.1369 67.8241 74.1552 68.4352 74.0634 68.7129C73.9624 69.1574 73.2829 69.1389 73.0166 69.0463C72.9432 68.75 72.3739 68.4537 72.8238 68.1481ZM72.4473 79.3333C72.8789 79.4537 73.0258 79.8889 72.8881 80.2222C72.6769 80.9352 72.0984 80.8148 71.6026 80.6481C71.2537 80 71.7679 79.2315 72.4473 79.3333ZM71.3363 66.9352C71.8781 67.1296 72.1076 67.6852 71.9607 68.1852C71.6577 68.7685 70.7119 68.4074 70.5558 67.8796C70.3354 67.3055 71.0976 67.2778 71.3363 66.9352ZM62.852 70.4167C63.2927 70.3704 63.9447 70.7963 63.66 71.3796C63.5498 71.8148 63.0999 71.6018 62.7234 71.7963C62.1909 71.4352 62.1174 70.6204 62.852 70.4167ZM61.493 72.7685C62.1266 71.6481 63.4396 73.2685 62.2368 73.8518C61.8603 73.5092 60.9696 73.4537 61.493 72.7685ZM60.887 75.2685C60.9972 74.3241 62.4112 74.4815 62.2827 75.3426C62.1725 75.7778 61.7134 75.8241 61.4104 76.0555C61.1165 75.8518 60.9145 75.6296 60.887 75.2685ZM61.8328 78.5185C61.392 78.4074 61.3828 77.7963 61.5114 77.4722L62.0348 77.037L62.7877 77.7037C62.6867 78.2407 62.4388 78.5092 61.8328 78.5185ZM63.0081 80.5C62.246 80.2407 62.5857 79.7037 62.7234 79.1111C63.1825 78.8055 63.8896 79.2778 63.8528 79.8518C63.6508 80.1481 63.4855 80.5463 63.0081 80.5ZM64.2569 70.0555C63.9263 70.0092 63.963 69.7037 63.8712 69.4629C64.0916 68.3241 65.5699 68.787 65.1383 69.6018C65.019 70.0463 64.5874 70.1944 64.2569 70.0555ZM66.0841 81.7407C65.7811 81.7963 65.6434 82.037 65.2669 81.9722C64.7343 81.8704 64.7068 81.2592 64.7802 80.8796C65.3036 79.9352 66.7269 80.8796 66.0841 81.7407ZM65.9647 68.9629C65.726 68.8055 65.8086 68.4352 65.6985 68.1944C65.8637 67.287 67.8195 67.537 67.0207 68.6389C66.9105 69.0648 66.2402 69.0648 65.9647 68.9629ZM68.4806 81.6852C68.2878 81.9907 68.1776 82.4259 67.7002 82.3796C67.3421 82.1296 67.1217 81.8148 67.0758 81.3703C67.3145 80.2407 68.9673 80.8055 68.4806 81.6852ZM68.7561 66.8611C69.2795 66.9444 69.509 67.2592 69.5733 67.8148C69.4264 68.3148 68.9489 68.25 68.5817 68.4444C67.8287 68.0463 68.1409 67.1481 68.7561 66.8611ZM69.2428 81.1574C69.5182 80.0555 70.9598 80.5741 70.6752 81.4166C70.5558 81.75 70.3354 81.9537 69.9865 81.9815C69.6284 81.75 69.1877 81.6389 69.2428 81.1574Z" fill="#FEFEFE"/>
<path d="M67.1769 99.8239C69.7754 100.759 72.5209 100.944 75.248 101.028C72.5484 100.778 70.0509 97.6017 67.1769 99.8239Z" fill="#FEFEFE"/>
<path d="M82.9885 97.213C83.0069 97.6112 83.0253 98.0279 83.0436 98.4445C83.8517 98.6204 84.6321 98.8427 85.3943 98.9075C86.8083 98.2871 88.1214 97.5093 89.3426 96.5927C87.2399 96.3612 84.6138 95.4538 82.9885 97.213Z" fill="#FEFEFE"/>
<path d="M68.1961 97.8519C66.6075 94.4259 63.0173 96.6019 60.5198 96.6667L62.1909 97.7593C63.8896 99.8148 66.0107 98.213 68.1961 97.8519Z" fill="#FEFEFE"/>
<path d="M93.1807 92.9259C90.2883 92.6204 84.7423 92.1852 83.2088 92.8889C83.1262 92.9259 83.0435 92.9722 82.9701 93.0278C82.9517 93.6944 82.9425 94.3796 82.9517 95.0926C85.0912 95.1574 88.4151 95.6574 91.0229 95.2037C91.7942 94.4907 92.5012 93.7222 93.1807 92.9259Z" fill="#FEFEFE"/>
<path d="M64.3946 94.6945C63.9814 90.5001 58.8302 92.7501 56.0388 93.1482C57.9487 96.8612 61.5665 94.3797 64.3946 94.6945Z" fill="#FEFEFE"/>
<path d="M96.5598 87.8148L83.1905 87.4814C83.1262 88.6759 83.0712 89.8333 83.0344 91.0277C86.9185 91.1666 91.8952 91.2222 94.3928 91.3518C95.2008 90.2314 95.917 89.0463 96.5598 87.8148Z" fill="#FEFEFE"/>
<path d="M54.8819 91.5278C57.2234 91.1944 59.6383 91.2315 61.5574 90.6204L59.5557 87.4352L52.1365 87.9537C53.0088 89.2037 53.3393 90.787 54.8819 91.5278Z" fill="#FEFEFE"/>
<path d="M98.8184 82.213C94.7966 81.8704 86.7439 82 83.3556 81.8704C83.3465 83.3333 83.3097 84.6944 83.2546 86L97.3034 86.2685C97.9002 84.9444 98.4052 83.5833 98.8184 82.213Z" fill="#FEFEFE"/>
<path d="M51.7048 86.3982L58.8852 85.9816C58.3159 84.7501 58.2425 82.9167 57.2508 81.8519C54.7624 82.1853 51.87 81.8241 49.6479 82.6667C50.5019 83.8241 50.6396 85.6945 51.7048 86.3982Z" fill="#FEFEFE"/>
<path d="M99.7093 78.4722L99.8103 76.074C98.0473 76.0462 95.4212 75.9907 92.7217 75.9722C92.5839 76.6018 92.2258 77.1203 91.5739 77.2592C87.9102 78.8796 87.1848 78.1481 83.3099 78.5277C83.3283 79.0833 83.3467 79.6203 83.3467 80.1481C86.891 80.3888 95.1733 80.6759 99.2594 80.5462C99.4338 79.8518 99.5808 79.1666 99.7093 78.4722Z" fill="#FEFEFE"/>
<path d="M99.9939 72.2685C99.9755 71.4537 99.8929 70.6852 99.7918 69.9259C97.781 70.0555 94.053 70.0741 90.5822 70.1018C91.2984 71.1481 91.9503 72.287 92.5379 73.5463C92.6114 73.8055 92.6849 74.0833 92.74 74.3889C95.4211 74.4444 98.084 74.4352 99.8929 74.3704L99.9939 72.2685Z" fill="#FEFEFE"/>
<path d="M50.502 68.4723L57.0397 68.6667C57.4712 67.3334 58.0956 65.8519 58.4537 64.6482L53.1556 64.0834C52.0996 65.3519 50.9611 66.7315 50.502 68.4723Z" fill="#FEFEFE"/>
<path d="M84.9075 64.4352C86.5694 65.6204 88.057 66.9445 89.3608 68.4908L99.5163 68.3426C99.1674 66.7871 98.644 65.3241 97.9645 63.9445L84.9075 64.4352Z" fill="#FEFEFE"/>
<path d="M65.4323 61.2871L70.7671 63.4908C70.2804 62.1574 70.7946 60.963 71.6853 59.8334L65.4323 61.2871Z" fill="#FEFEFE"/>
<path d="M72.3004 62.0278C72.0616 63.3148 72.989 64.0926 74.0817 64.6296C75.3121 64.9352 76.6803 64.6296 77.323 63.2592C77.8189 61.7129 76.919 59.8426 75.2938 59.8796C73.7236 59.287 72.9982 60.9352 72.3004 62.0278Z" fill="#FEFEFE"/>
<path d="M54.0922 62.6575L59.7025 63.0001C60.3544 61.7223 61.3369 60.8334 62.1908 59.7686C60.5289 59.3704 58.7292 59.389 57.0213 59.0371C56.0296 60.1667 54.3768 61.3056 54.0922 62.6575Z" fill="#FEFEFE"/>
<path d="M81.5928 59.4074C81.4367 60.7222 81.3449 62 82.4835 62.8426L97.1749 62.5092C96.4128 61.2222 95.5038 60.0092 94.4937 58.9166C92.6573 59.1574 85.7799 59.2314 81.5928 59.4074Z" fill="#FEFEFE"/>
<path d="M58.5548 57.5462C61.5298 57.7962 64.6977 58.5 66.7453 55.574C64.9548 55.3425 63.302 54.7777 61.5115 54.787L58.5548 57.5462Z" fill="#FEFEFE"/>
<path d="M81.7398 55.4815C81.6847 55.8333 81.6296 56.1852 81.547 56.5278C81.7215 57 81.749 57.4908 81.7306 58C84.3751 58.1852 91.023 57.6019 93.0155 57.4352C91.9229 56.4259 90.7292 55.5093 89.4712 54.6945C87.745 54.8056 84.3935 55.1759 81.7398 55.4815Z" fill="#FEFEFE"/>
<path d="M64.0916 53.4352C66.6075 53.4537 69.3529 54.8241 71.4924 52.5463C69.0958 51.676 66.1575 51.5371 64.0916 53.4352Z" fill="#FEFEFE"/>
<path d="M87.0838 53.3055C86.0278 52.75 84.9443 52.2685 83.8425 51.8425C83.1813 51.7777 82.4927 51.8148 81.8224 51.9166C81.8316 52.4722 81.8591 53.037 81.8499 53.6203C83.5027 54 85.3392 53.3703 87.0838 53.3055Z" fill="#FEFEFE"/>
<path d="M77.9383 50.3796C75.6427 50.3981 72.833 49.7685 71.0884 50.6666L73.8063 51.4166L77.9383 50.3796Z" fill="#FEFEFE"/>
<path d="M76.8364 44.2129L77.571 44C77.6169 44.9722 78.4525 46.0278 78.0576 47.0463C77.7271 49.1296 79.7655 49.0926 81.0143 49.1389C81.2989 46.8518 84.1546 44.3796 82.0152 42.2129C79.1228 41.3426 76.1294 41.0092 72.9982 41.4259C70.8588 43.1852 71.5934 46.2222 72.0984 48.8518C74.8439 49.287 75.1193 45.4629 76.8364 44.2129ZM79.2789 44.5185C79.6186 43.9815 80.7572 44.037 80.7296 44.8704C80.5368 45.1666 80.3256 45.3796 79.9675 45.3981C79.6186 45.1574 79.2146 45 79.2789 44.5185ZM74.9632 43.7407C74.6786 44.1666 74.3388 44.1852 73.9073 44.0741C73.6961 44.0092 73.7236 43.7037 73.6777 43.5C73.7696 42.4537 75.0367 43.1111 74.9632 43.7407Z" fill="#FEFEFE"/>
<path d="M133.729 35.1018L135.602 30.7963L130.956 31.2963L133.729 35.1018Z" fill="#FEFEFE"/>
<path d="M119.919 14.8518L115.631 16.6944L119.368 19.5277L119.919 14.8518Z" fill="#FEFEFE"/>
<path d="M123.381 22.9908L124.262 18.3889L119.855 19.9074L123.381 22.9908Z" fill="#FEFEFE"/>
<path d="M127.136 26.7685L128.349 22.2407L123.84 23.4166L127.136 26.7685Z" fill="#FEFEFE"/>
<path d="M130.571 30.8055L132.122 26.3704L127.54 27.2222L130.571 30.8055Z" fill="#FEFEFE"/>
<path d="M26.3987 23.4538L21.8903 22.2778L23.0839 26.8056L26.3987 23.4538Z" fill="#FEFEFE"/>
<path d="M22.6616 27.2685L18.0889 26.4166L19.6131 30.8518L22.6616 27.2685Z" fill="#FEFEFE"/>
<path d="M19.2275 31.3334L14.6089 30.8334L16.4453 35.1482L19.2275 31.3334Z" fill="#FEFEFE"/>
<path d="M34.626 16.7315L30.3563 14.8889L30.8797 19.5556L34.626 16.7315Z" fill="#FEFEFE"/>
<path d="M30.3839 19.9353L25.9856 18.4353L26.8395 23.0372L30.3839 19.9353Z" fill="#FEFEFE"/>
<path d="M39.0977 13.8518L34.9657 11.6852L35.131 16.3796L39.0977 13.8518Z" fill="#FEFEFE"/>
<path d="M115.301 11.6666L111.178 13.8148L115.117 16.3518L115.301 11.6666Z" fill="#FEFEFE"/>
<path d="M39.8047 8.85181L39.6211 13.5277L43.7439 11.3148L39.8047 8.85181Z" fill="#FEFEFE"/>
<path d="M110.489 8.8241L106.532 11.2871L110.645 13.5093L110.489 8.8241Z" fill="#FEFEFE"/>
<path d="M44.8367 6.37036L44.2949 11.037L48.6014 9.1111L44.8367 6.37036Z" fill="#FEFEFE"/>
<path d="M105.476 6.34265L101.702 9.11117L105.981 11.0093L105.476 6.34265Z" fill="#FEFEFE"/>
<path d="M50.0337 4.27783L49.1614 8.8982L53.578 7.30561L50.0337 4.27783Z" fill="#FEFEFE"/>
<path d="M100.278 4.25928L96.725 7.29631L101.132 8.87965L100.278 4.25928Z" fill="#FEFEFE"/>
<path d="M55.3686 2.60181L54.1658 7.12033L58.6834 5.87958L55.3686 2.60181Z" fill="#FEFEFE"/>
<path d="M94.9437 2.58337L91.6198 5.87041L96.1282 7.10189L94.9437 2.58337Z" fill="#FEFEFE"/>
<path d="M60.8228 1.3241L59.2802 5.75002L63.8712 4.84262L60.8228 1.3241Z" fill="#FEFEFE"/>
<path d="M89.4528 1.29626L86.386 4.8333L90.9863 5.73145L89.4528 1.29626Z" fill="#FEFEFE"/>
<path d="M66.3503 0.453735L64.4863 4.75003L69.1417 4.20374L66.3503 0.453735Z" fill="#FEFEFE"/>
<path d="M83.8883 0.425903L81.0969 4.20368L85.7431 4.73146L83.8883 0.425903Z" fill="#FEFEFE"/>
<path d="M78.2873 0L75.7805 3.9537L80.4451 4.12963L78.2873 0Z" fill="#FEFEFE"/>
<path d="M71.9331 0L69.7385 4.13889L74.4306 3.9537L71.9331 0Z" fill="#FEFEFE"/>
</svg>
