<svg width="50" height="50" viewBox="0 0 50 50" fill="none" xmlns="http://www.w3.org/2000/svg">
<path d="M16.6156 21.0229L20.1371 23.0562C20.2207 23.1029 20.3129 23.1324 20.4081 23.1431C20.5034 23.1538 20.5998 23.1454 20.6917 23.1184C20.7837 23.0914 20.8694 23.0464 20.9437 22.9859C21.018 22.9254 21.0796 22.8507 21.1247 22.7662L21.1322 22.7532C21.1816 22.6719 21.2145 22.5815 21.2289 22.4874C21.2432 22.3933 21.2388 22.2972 21.2159 22.2048C21.193 22.1124 21.152 22.0254 21.0953 21.9489C21.0387 21.8724 20.9674 21.8079 20.8857 21.7591L17.3642 19.7263C17.1921 19.6271 16.9877 19.6002 16.7958 19.6517C16.6039 19.7032 16.4404 19.8288 16.3411 20.0008C16.2418 20.1729 16.215 20.3774 16.2664 20.5692C16.3179 20.7611 16.4435 20.9247 16.6156 21.0239V21.0229Z" fill="#C8CDE2"/>
<path d="M28.9048 22.7544C28.9501 22.8385 29.0117 22.9127 29.0859 22.9728C29.1602 23.0329 29.2457 23.0776 29.3375 23.1043C29.4292 23.131 29.5254 23.1392 29.6203 23.1284C29.7152 23.1176 29.807 23.088 29.8904 23.0413L33.3839 21.0236C33.556 20.9243 33.6816 20.7607 33.7331 20.5689C33.7846 20.377 33.7577 20.1725 33.6584 20.0005C33.5592 19.8284 33.3956 19.7028 33.2037 19.6513C33.0119 19.5998 32.8074 19.6267 32.6353 19.726L29.1418 21.7437C29.0596 21.7926 28.988 21.8574 28.9311 21.9343C28.8741 22.0112 28.8331 22.0986 28.8103 22.1915C28.7875 22.2844 28.7834 22.3809 28.7982 22.4754C28.8131 22.5699 28.8466 22.6605 28.8968 22.7419L28.9048 22.7544Z" fill="#919BC6"/>
<path d="M22.7541 21.1232L22.7671 21.1157C22.851 21.0703 22.925 21.0086 22.9849 20.9343C23.0448 20.86 23.0894 20.7746 23.116 20.6829C23.1426 20.5913 23.1507 20.4952 23.1399 20.4004C23.1291 20.3056 23.0996 20.2139 23.053 20.1306L21.0228 16.6156C20.9736 16.5304 20.9082 16.4557 20.8302 16.3958C20.7522 16.3359 20.6631 16.2919 20.5681 16.2664C20.3762 16.215 20.1718 16.2418 19.9997 16.3411C19.8276 16.4403 19.702 16.6039 19.6506 16.7958C19.5991 16.9876 19.6259 17.1921 19.7252 17.3642L21.7559 20.8787C21.8049 20.9608 21.8698 21.0323 21.9467 21.0891C22.0236 21.146 22.111 21.187 22.2039 21.2097C22.2967 21.2325 22.3932 21.2365 22.4877 21.2217C22.5821 21.2068 22.6727 21.1734 22.7541 21.1232Z" fill="#C8CDE2"/>
<path d="M25.0175 20.5084H25.025C25.118 20.5118 25.2108 20.4965 25.2978 20.4634C25.3849 20.4304 25.4644 20.3803 25.5319 20.3161C25.5993 20.2519 25.6532 20.1749 25.6904 20.0895C25.7276 20.0042 25.7474 19.9123 25.7486 19.8192V15.7487C25.7486 15.5502 25.6698 15.3598 25.5294 15.2194C25.389 15.079 25.1986 15.0001 25 15.0001C24.8015 15.0001 24.6111 15.079 24.4707 15.2194C24.3303 15.3598 24.2514 15.5502 24.2514 15.7487V19.8197C24.252 19.912 24.2711 20.0033 24.3075 20.0882C24.3438 20.1731 24.3968 20.2498 24.4632 20.314C24.5296 20.3781 24.6082 20.4284 24.6943 20.4618C24.7804 20.4951 24.8723 20.511 24.9646 20.5084H25.0175Z" fill="#C8CDE2"/>
<path d="M20.5258 25V24.9645C20.5281 24.8723 20.5121 24.7805 20.4787 24.6945C20.4452 24.6085 20.395 24.53 20.3309 24.4636C20.2668 24.3972 20.1901 24.3442 20.1053 24.3078C20.0205 24.2714 19.9293 24.2522 19.837 24.2513H15.7486C15.5501 24.2513 15.3597 24.3302 15.2193 24.4706C15.0789 24.611 15 24.8014 15 25C15 25.1985 15.0789 25.3889 15.2193 25.5293C15.3597 25.6697 15.5501 25.7486 15.7486 25.7486H19.837C19.9294 25.7478 20.0206 25.7287 20.1054 25.6922C20.1903 25.6558 20.267 25.6029 20.3312 25.5365C20.3954 25.4701 20.4456 25.3916 20.4791 25.3056C20.5126 25.2195 20.5286 25.1277 20.5263 25.0354L20.5258 25Z" fill="#C8CDE2"/>
<path d="M27.2599 21.1102C27.3413 21.1596 27.4316 21.1923 27.5256 21.2066C27.6197 21.2209 27.7156 21.2164 27.8079 21.1934C27.9002 21.1705 27.9871 21.1295 28.0635 21.0728C28.1399 21.0161 28.2043 20.9449 28.2531 20.8632L30.2738 17.3642C30.323 17.279 30.3549 17.1849 30.3677 17.0874C30.3805 16.9899 30.374 16.8908 30.3485 16.7958C30.323 16.7008 30.279 16.6117 30.2191 16.5337C30.1592 16.4557 30.0846 16.3902 29.9994 16.3411C29.8273 16.2418 29.6228 16.215 29.431 16.2664C29.2391 16.3179 29.0755 16.4435 28.9762 16.6156L26.955 20.1166C26.9082 20.2003 26.8787 20.2925 26.868 20.3878C26.8574 20.4831 26.8658 20.5796 26.8929 20.6716C26.92 20.7635 26.9652 20.8492 27.0258 20.9235C27.0864 20.9978 27.1613 21.0592 27.246 21.1043L27.2599 21.1102Z" fill="#919BC6"/>
<path d="M27.2599 28.89L27.2469 28.8975C27.1623 28.9425 27.0874 29.0039 27.0268 29.0782C26.9662 29.1525 26.921 29.2382 26.8939 29.3302C26.8668 29.4221 26.8583 29.5186 26.869 29.6139C26.8797 29.7092 26.9092 29.8014 26.956 29.8851L28.9772 33.3862C29.0765 33.5582 29.2401 33.6838 29.4319 33.7353C29.6238 33.7868 29.8283 33.7599 30.0003 33.6606C30.1724 33.5614 30.298 33.3978 30.3495 33.2059C30.4009 33.0141 30.3741 32.8096 30.2748 32.6375L28.2541 29.137C28.2053 29.0552 28.1408 28.9839 28.0643 28.9271C27.9879 28.8703 27.9009 28.8293 27.8085 28.8063C27.716 28.7834 27.62 28.7789 27.5258 28.7933C27.4317 28.8076 27.3413 28.8405 27.2599 28.89Z" fill="#24388D"/>
<path d="M21.1128 27.2149C21.0691 27.1328 21.0095 27.0601 20.9374 27.0013C20.8653 26.9425 20.7822 26.8987 20.6929 26.8724C20.6037 26.8461 20.5101 26.838 20.4176 26.8484C20.3252 26.8588 20.2357 26.8875 20.1545 26.933L16.6156 28.9772C16.4435 29.0764 16.3179 29.24 16.2664 29.4319C16.215 29.6237 16.2418 29.8282 16.3411 30.0003C16.4404 30.1723 16.6039 30.2979 16.7958 30.3494C16.9877 30.4009 17.1921 30.374 17.3642 30.2748L20.9041 28.231C20.9835 28.1838 21.0527 28.1212 21.1078 28.0471C21.1629 27.9729 21.2026 27.8885 21.2249 27.7988C21.2471 27.7092 21.2513 27.616 21.2373 27.5246C21.2233 27.4333 21.1913 27.3457 21.1432 27.2668C21.1317 27.2489 21.1222 27.2319 21.1128 27.2149Z" fill="#C8CDE2"/>
<path d="M34.2514 24.2513H30.2264C30.1305 24.2524 30.0357 24.2724 29.9476 24.3103C29.8595 24.3482 29.7798 24.4033 29.7131 24.4722C29.6464 24.5411 29.594 24.6226 29.559 24.7119C29.524 24.8012 29.5071 24.8966 29.5092 24.9925V25.0074C29.5071 25.1033 29.524 25.1987 29.559 25.288C29.594 25.3773 29.6464 25.4588 29.7131 25.5277C29.7798 25.5967 29.8595 25.6517 29.9476 25.6896C30.0357 25.7275 30.1305 25.7475 30.2264 25.7486H34.2514C34.45 25.7486 34.6404 25.6697 34.7808 25.5293C34.9212 25.3889 35 25.1985 35 25C35 24.8014 34.9212 24.611 34.7808 24.4706C34.6404 24.3302 34.45 24.2513 34.2514 24.2513Z" fill="#5B6AA9"/>
<path d="M33.3844 28.9773L29.8909 26.9591C29.8075 26.9125 29.7156 26.883 29.6207 26.8722C29.5257 26.8615 29.4296 26.8697 29.3379 26.8965C29.2462 26.9232 29.1607 26.968 29.0864 27.0281C29.0121 27.0882 28.9505 27.1624 28.9052 27.2465L28.8977 27.2595C28.8475 27.3409 28.8141 27.4315 28.7992 27.526C28.7844 27.6205 28.7885 27.717 28.8113 27.8099C28.8341 27.9028 28.8751 27.9902 28.932 28.0671C28.989 28.1439 29.0606 28.2087 29.1428 28.2577L32.6363 30.2754C32.8084 30.3747 33.0128 30.4015 33.2047 30.3501C33.2997 30.3246 33.3888 30.2806 33.4668 30.2207C33.5448 30.1608 33.6103 30.0861 33.6594 30.0009C33.7086 29.9157 33.7405 29.8217 33.7533 29.7241C33.7661 29.6266 33.7596 29.5275 33.7341 29.4325C33.7086 29.3375 33.6646 29.2485 33.6047 29.1704C33.5448 29.0924 33.4701 29.027 33.3849 28.9778L33.3844 28.9773Z" fill="#5B6AA9"/>
<path d="M25.0175 29.4918H24.9646C24.8723 29.4892 24.7804 29.505 24.6943 29.5384C24.6082 29.5718 24.5296 29.6221 24.4632 29.6862C24.3968 29.7504 24.3438 29.8271 24.3075 29.912C24.2711 29.9969 24.252 30.0882 24.2514 30.1805V34.2515C24.2514 34.45 24.3303 34.6404 24.4707 34.7808C24.6111 34.9212 24.8015 35.0001 25 35.0001C25.1986 35.0001 25.389 34.9212 25.5294 34.7808C25.6698 34.6404 25.7486 34.45 25.7486 34.2515V30.181C25.7474 30.0879 25.7276 29.996 25.6904 29.9107C25.6532 29.8253 25.5993 29.7483 25.5319 29.6841C25.4644 29.6199 25.3849 29.5698 25.2978 29.5368C25.2108 29.5037 25.118 29.4884 25.025 29.4918H25.0175Z" fill="#24388D"/>
<path d="M22.7353 28.8659C22.6564 28.8171 22.5686 28.7844 22.4769 28.7699C22.3853 28.7553 22.2917 28.7592 22.2016 28.7812C22.1114 28.8032 22.0266 28.843 21.952 28.8981C21.8774 28.9533 21.8145 29.0228 21.7671 29.1025L19.7263 32.6359C19.6271 32.808 19.6002 33.0125 19.6517 33.2043C19.7032 33.3962 19.8288 33.5598 20.0008 33.659C20.1729 33.7583 20.3774 33.7852 20.5692 33.7337C20.7611 33.6822 20.9247 33.5566 21.0239 33.3845L23.0636 29.8511C23.1089 29.7702 23.1376 29.6812 23.1482 29.5891C23.1587 29.497 23.1508 29.4038 23.1249 29.3148C23.099 29.2258 23.0557 29.1428 22.9975 29.0707C22.9392 28.9986 22.8672 28.9389 22.7857 28.8949L22.7353 28.8659Z" fill="#C8CDE2"/>
</svg>
