<svg width="24" height="25" viewBox="0 0 24 25" fill="none" xmlns="http://www.w3.org/2000/svg">
<path fill-rule="evenodd" clip-rule="evenodd" d="M21.8865 10.981C21.9625 11.479 22.0005 11.99 22.0005 12.5C22.0005 18.014 17.5145 22.5 12.0005 22.5C6.48649 22.5 2.00049 18.014 2.00049 12.5C2.00049 6.986 6.48649 2.5 12.0005 2.5C15.1285 2.5 18.0175 3.923 19.9275 6.402C20.1725 6.72 20.1125 7.178 19.7955 7.422C19.4775 7.668 19.0215 7.607 18.7745 7.29C17.1435 5.169 14.6735 3.954 12.0005 3.954C7.28849 3.954 3.45449 7.787 3.45449 12.5C3.45449 17.212 7.28849 21.045 12.0005 21.045C16.7125 21.045 20.5465 17.212 20.5465 12.5C20.5465 12.063 20.5135 11.626 20.4485 11.201C20.3885 10.805 20.6605 10.434 21.0575 10.373C21.4565 10.307 21.8255 10.584 21.8865 10.981ZM9.20629 12.4992C9.20629 12.3002 9.28529 12.1092 9.42729 11.9682L12.9133 8.4972C13.2073 8.2042 13.6823 8.2052 13.9743 8.4992C14.2663 8.7932 14.2663 9.2672 13.9723 9.5592L11.0193 12.4992L13.9723 15.4392C14.2663 15.7312 14.2663 16.2062 13.9743 16.5002C13.6823 16.7932 13.2073 16.7942 12.9133 16.5022L9.42729 13.0302C9.28529 12.8902 9.20629 12.6992 9.20629 12.4992Z" fill="#0F0F0F"/>
</svg>
