<svg width="18" height="19" viewBox="0 0 18 19" fill="none" xmlns="http://www.w3.org/2000/svg">
<path d="M5.78 18.8C5.34445 18.8 4.96334 18.6705 4.63667 18.4114C4.31 18.1524 4.09223 17.8172 3.98334 17.4058L2.93334 13.3148H15.0667L14.0167 17.4058C13.9078 17.8172 13.69 18.1524 13.3633 18.4114C13.0367 18.6705 12.6556 18.8 12.22 18.8H5.78ZM9 6.00131C9 4.63003 9.47445 3.44158 10.4233 2.43597C11.3722 1.43036 12.5544 0.820905 13.97 0.607594C14.0478 0.592357 14.1178 0.599976 14.18 0.630449C14.2422 0.660922 14.3044 0.699013 14.3667 0.744722C14.4289 0.790432 14.4718 0.847416 14.4955 0.915676C14.5191 0.983935 14.5228 1.05646 14.5067 1.13325C14.3356 2.33694 13.834 3.38429 13.0021 4.27532C12.1702 5.16635 11.1473 5.71121 9.93334 5.9099V7.82969H16.4667C16.7311 7.82969 16.9529 7.91746 17.1321 8.09298C17.3113 8.26851 17.4006 8.48547 17.4 8.74389V10.5723C17.4 11.0751 17.2174 11.5057 16.8521 11.864C16.4869 12.2224 16.0473 12.4013 15.5333 12.4006H2.46667C1.95334 12.4006 1.51405 12.2218 1.14881 11.864C0.783562 11.5063 0.600628 11.0757 0.600006 10.5723V8.74389C0.600006 8.48486 0.689606 8.2679 0.868806 8.09298C1.04801 7.91807 1.26952 7.8303 1.53334 7.82969H8.06667V5.9099C6.85334 5.71182 5.83072 5.16727 4.99881 4.27624C4.16689 3.38521 3.66507 2.33755 3.49334 1.13325C3.47778 1.05707 3.48183 0.98485 3.50547 0.91659C3.52912 0.848331 3.57174 0.791041 3.63334 0.744722C3.69556 0.699013 3.75778 0.660922 3.82001 0.630449C3.88223 0.599976 3.95223 0.592357 4.03001 0.607594C5.44556 0.820905 6.62778 1.43036 7.57667 2.43597C8.52556 3.44158 9 4.63003 9 6.00131Z" fill="white"/>
</svg>
