<svg width="18" height="18" viewBox="0 0 18 18" fill="none" xmlns="http://www.w3.org/2000/svg">
<path d="M16.7539 7.31689H16.0778C15.9155 5.48082 15.0996 3.7741 13.7902 2.53147C12.4808 1.28885 10.7724 0.599976 9.00001 0.599976C7.22764 0.599976 5.51923 1.28885 4.20983 2.53147C2.90044 3.7741 2.08455 5.48082 1.9222 7.31689H1.24616C1.07479 7.31689 0.910437 7.38771 0.78926 7.51377C0.668083 7.63984 0.600006 7.81081 0.600006 7.98909C0.602845 9.5877 1.02573 11.1551 1.82294 12.5217C2.62015 13.8884 3.76133 15.0023 5.12308 15.743V16.0556C5.12308 16.4121 5.25924 16.7541 5.50159 17.0062C5.74395 17.2583 6.07265 17.4 6.41539 17.4H11.5846C11.9274 17.4 12.2561 17.2583 12.4984 17.0062C12.7408 16.7541 12.8769 16.4121 12.8769 16.0556V15.743C14.2387 15.0023 15.3799 13.8884 16.1771 12.5217C16.9743 11.1551 17.3972 9.5877 17.4 7.98909C17.4 7.81081 17.3319 7.63984 17.2108 7.51377C17.0896 7.38771 16.9252 7.31689 16.7539 7.31689ZM14.7782 7.31689H10.6251C11.4085 6.09422 12.5937 5.2108 13.9584 4.83225C14.4047 5.58735 14.6846 6.43587 14.7782 7.31689ZM12.6734 3.30298C12.8215 3.42902 12.9634 3.56206 13.099 3.7021C11.379 4.33158 9.95753 5.62529 9.12924 7.31521H6.74654C7.1504 6.13753 7.8939 5.11828 8.87548 4.3967C9.85707 3.67512 11.0289 3.2864 12.2308 3.28366C12.3786 3.28366 12.5264 3.29122 12.6734 3.30298ZM9.00001 1.93924C9.51852 1.9396 10.0346 2.01223 10.5346 2.15519C9.31697 2.46942 8.20046 3.11202 7.29761 4.01823C6.39477 4.92443 5.7375 6.06221 5.39204 7.31689H3.22178C3.38206 5.83876 4.05961 4.47369 5.12527 3.48191C6.19093 2.49013 7.57015 1.94101 9.00001 1.93924ZM11.961 14.7112C11.8483 14.765 11.7529 14.8515 11.6861 14.9603C11.6194 15.069 11.5841 15.1955 11.5846 15.3245V16.0556H6.41539V15.3245C6.41586 15.1955 6.38063 15.069 6.31388 14.9603C6.24714 14.8515 6.15172 14.765 6.03901 14.7112C4.90268 14.1672 3.92388 13.3218 3.20086 12.2599C2.47784 11.198 2.03603 9.95697 1.91978 8.6613H16.0778C15.9618 9.9567 15.5203 11.1976 14.7978 12.2595C14.0752 13.3213 13.0969 14.1668 11.961 14.7112Z" fill="white"/>
</svg>
