<svg width="50" height="50" viewBox="0 0 50 50" fill="none" xmlns="http://www.w3.org/2000/svg">
<path fill-rule="evenodd" clip-rule="evenodd" d="M31.4728 17.1493C31.6637 16.9497 31.9732 16.9497 32.1641 17.1493C32.355 17.3488 32.355 17.6724 32.1641 17.8719L25.6912 24.6386L32.8553 32.128C33.0462 32.3275 33.0462 32.6511 32.8553 32.8506C32.6645 33.0501 32.355 33.0501 32.1641 32.8506L25 25.3612L17.8359 32.8506C17.645 33.0501 17.3355 33.0501 17.1446 32.8506C16.9537 32.6511 16.9537 32.3275 17.1446 32.128L24.3087 24.6386L17.8359 17.8719C17.645 17.6724 17.645 17.3488 17.8359 17.1493C18.0268 16.9497 18.3363 16.9497 18.5271 17.1493L25 23.916L31.4728 17.1493Z" fill="#F5F5F5"/>
</svg>
