<svg width="24" height="25" viewBox="0 0 24 25" fill="none" xmlns="http://www.w3.org/2000/svg">
<path fill-rule="evenodd" clip-rule="evenodd" d="M10.4805 22.386C10.9785 22.462 11.4895 22.5 11.9995 22.5C17.5135 22.5 21.9995 18.014 21.9995 12.5C21.9995 6.986 17.5135 2.5 11.9995 2.5C6.48551 2.5 1.99951 6.986 1.99951 12.5C1.99951 15.628 3.42251 18.517 5.90151 20.427C6.21951 20.672 6.67751 20.612 6.92151 20.295C7.16751 19.977 7.10651 19.521 6.78951 19.274C4.66851 17.643 3.45351 15.173 3.45351 12.5C3.45351 7.788 7.28651 3.954 11.9995 3.954C16.7115 3.954 20.5445 7.788 20.5445 12.5C20.5445 17.212 16.7115 21.046 11.9995 21.046C11.5625 21.046 11.1255 21.013 10.7005 20.948C10.3045 20.888 9.93351 21.16 9.87251 21.557C9.80651 21.956 10.0835 22.325 10.4805 22.386ZM14.7937 12.4992C14.7937 12.3002 14.7147 12.1092 14.5727 11.9682L11.0867 8.49719C10.7927 8.20419 10.3177 8.20519 10.0257 8.49919C9.73369 8.79319 9.73369 9.26719 10.0277 9.55919L12.9807 12.4992L10.0277 15.4392C9.73369 15.7312 9.73369 16.2062 10.0257 16.5002C10.3177 16.7932 10.7927 16.7942 11.0867 16.5022L14.5727 13.0302C14.7147 12.8902 14.7937 12.6992 14.7937 12.4992Z" fill="#0F0F0F"/>
</svg>
